inDegrees=no
num_controls=7
num_derivatives=13
num_iterations=114
num_multipliers=7
num_parameters=0
num_slacks=7
num_states=26
objective=0.431110
objective_accelerations=0.050161
objective_balance=0.006804
objective_effort=0.031186
objective_height=0.341788
objective_ligament=0.001171
solver_duration=1671.199216
status=Solve_Succeeded
success=true
DataType=double
version=3
OpenSimVersion=4.5
endheader
time	/jointset/ground_pelvis/pelvis_tilt/value	/jointset/ground_pelvis/pelvis_tx/value	/jointset/ground_pelvis/pelvis_ty/value	/jointset/hip_l/hip_flexion_l/value	/jointset/hip_l/hip_adduction_l/value	/jointset/hip_l/hip_rotation_l/value	/jointset/back/lumbar_extension/value	/jointset/patellofemoral_l/patellar_flexion_l/value	/jointset/knee_l/knee_flexion_l/value	/jointset/knee_l/knee_adduction_l/value	/jointset/knee_l/knee_rotation_l/value	/jointset/ankle_l/ankle_angle_l/value	/jointset/subtalar_l/subtalar_angle_l/value	/jointset/ground_pelvis/pelvis_tilt/speed	/jointset/ground_pelvis/pelvis_tx/speed	/jointset/ground_pelvis/pelvis_ty/speed	/jointset/hip_l/hip_flexion_l/speed	/jointset/hip_l/hip_adduction_l/speed	/jointset/hip_l/hip_rotation_l/speed	/jointset/back/lumbar_extension/speed	/jointset/patellofemoral_l/patellar_flexion_l/speed	/jointset/knee_l/knee_flexion_l/speed	/jointset/knee_l/knee_adduction_l/speed	/jointset/knee_l/knee_rotation_l/speed	/jointset/ankle_l/ankle_angle_l/speed	/jointset/subtalar_l/subtalar_angle_l/speed	/forceset/tau_hip_flexion_l	/forceset/tau_hip_adduction_l	/forceset/tau_hip_rotation_l	/forceset/tau_knee_flexion_l	/forceset/tau_ankle_angle_l	/forceset/tau_subtalar_angle_l	/forceset/tau_lumbar_extension	lambda_cid13_p0	lambda_cid13_p1	lambda_cid13_p2	lambda_cid13_p3	lambda_cid13_p4	lambda_cid13_p5	lambda_cid14_p0	/jointset/ground_pelvis/pelvis_tilt/accel	/jointset/ground_pelvis/pelvis_tx/accel	/jointset/ground_pelvis/pelvis_ty/accel	/jointset/hip_l/hip_flexion_l/accel	/jointset/hip_l/hip_adduction_l/accel	/jointset/hip_l/hip_rotation_l/accel	/jointset/back/lumbar_extension/accel	/jointset/patellofemoral_l/patellar_flexion_l/accel	/jointset/knee_l/knee_flexion_l/accel	/jointset/knee_l/knee_adduction_l/accel	/jointset/knee_l/knee_rotation_l/accel	/jointset/ankle_l/ankle_angle_l/accel	/jointset/subtalar_l/subtalar_angle_l/accel	gamma_cid13_p0	gamma_cid13_p1	gamma_cid13_p2	gamma_cid13_p3	gamma_cid13_p4	gamma_cid13_p5	gamma_cid14_p0
1.5	-0.3355984409552769	-0.03052665670492568	0.7649566775059571	1.172319076656392	-0.304770230802543	0.01146621881167076	-0.3393340032080948	0.8201634858046413	0.8201634858046412	-0.1727950798940767	0.1672668566101563	0.165285385675959	-0.01890942978146438	0.4239378198624218	0.1554282868795345	0.5048672340773882	-2.091552874179773	-0.01281691134656371	-0.7003253254738926	0.5718455137812138	-2.093671081503393	-2.09367108150339	0.009069025040099899	-0.04008143713601177	-0.5493029228792933	-0.1051749866538793	-0.194019400939394	0.01881683953130738	-0.02582039772557776	-0.25433325536224	0.09557072759755188	0.0404303730679521	0.1927184701580136	-7.481068009638352	-19.01746838782918	5.791707874770788	-1.779645639189683	-607.5775180360446	-60.59140708976084	-20.29464643984421	0.5168605983711637	0.5455201638095245	-0.406290637667847	-1.353558359628719	0.6756003945146883	-0.3645756826135896	1.645886115530183	-1.368755808523851	-1.368755808523851	0.04033214171742106	-0.08441606027822733	-0.5562135315148968	0.6996714778291984	4.070108281934652e-07	4.123522476607073e-07	-2.528146372506669e-06	-2.78642300286869e-07	4.834651524822093e-07	2.575111038775924e-07	3.94768567959752e-07
1.51	-0.3313333811166556	-0.02894523398719401	0.7699839996001762	1.151338003268787	-0.3048656925663967	0.004447703487491333	-0.3335345357217473	0.7991606600616877	0.7991606600616876	-0.1727062571696736	0.1668616837321839	0.1597649508525094	-0.01992760892178796	0.4290142826734627	0.1608374315410288	0.5004906317339727	-2.104361017883419	-0.006254480058143794	-0.7032946301321579	0.5879627116828158	-2.106586677660164	-2.106586677660164	0.008694629130285016	-0.04094226064731227	-0.5546879391337561	-0.0984421763277116	-0.1878095662550123	0.01827980141868555	-0.02568842897668804	-0.2514379458041551	0.09715759553092046	0.0402967487727383	0.1875089269001147	-6.741270466780845	-19.18074418337634	5.922567357518185	-2.006895567555484	-603.2010827596617	-60.86248440683281	-21.57465999492394	0.4940991031246703	0.5357301981338257	-0.4692194544388356	-1.199271343004403	0.6500570888862905	-0.2502506513327019	1.581845856655797	-1.20693975328909	-1.206939753289747	-0.07647807979232986	-0.08475143514744615	-0.5152411817611837	0.6631114665307988	4.398019526457977e-07	5.182295931407151e-07	-2.644586553402173e-06	-2.849844376689827e-07	5.225374081170578e-07	3.545918040435304e-07	4.201600626365124e-07
1.52	-0.3270193446537928	-0.02731029610668451	0.7749643807866091	1.130237882650692	-0.3048948314987902	-0.002597933442050692	-0.3275764544105477	0.7780378827103595	0.7780378827103595	-0.1726212089288611	0.1664483354313803	0.1541935467646454	-0.02087785482754582	0.4337331447106684	0.1661313194351009	0.4954790525201404	-2.115362320277936	0.0004476549454854201	-0.7057496465464107	0.6035682787516419	-2.117661403178347	-2.117661403178353	0.008314128321985066	-0.04171652170226536	-0.5594967757621871	-0.0915883397407339	-0.1815997315706306	0.01774276330606371	-0.02555646022779827	-0.2485426362460702	0.09874446346428901	0.04016312447752447	0.1822993836422157	-6.005402000695808	-19.34532153680357	6.05590884488598	-2.255267496358547	-598.9138357452931	-61.2208888931386	-22.84943308319261	0.4453404436041134	0.5224688103250799	-0.5332860117511798	-0.9921900978027605	0.7035411375565489	-0.2617180338110751	1.543559948975028	-1.000581680805999	-1.000581680806217	0.03911116202040754	-0.06710356900806273	-0.440977606308519	0.7238767299912096	4.855668518609626e-07	6.041163890423015e-07	-2.839186371504985e-06	-3.039500055456259e-07	5.749776729669072e-07	4.5536353415384e-07	4.549094986084404e-07
1.53	-0.322659862265412	-0.02562307143059006	0.7798915447964707	1.109036656852254	-0.3048566021944032	-0.009664969789234364	-0.321465098725892	0.7568133953933321	0.7568133953933324	-0.1725408577713183	0.1660273655216594	0.1485768109162434	-0.02175937454496433	0.4380999139492165	0.1712864354512877	0.4898525543173485	-2.124569689144223	0.007210846454842949	-0.7075552552918192	0.6186035727685317	-2.12691946361609	-2.126919463616096	0.007744176774928304	-0.04247979749390413	-0.5637519451942827	-0.08470626756422678	-0.1753954657645999	0.01714543971454878	-0.02534576634744443	-0.245630263933449	0.1001466068758172	0.03981796669914175	0.1770536851470384	-5.343570998389841	-19.39519835499524	6.159689969832089	-2.360466754153066	-594.7243663084904	-61.40389655141097	-24.11701656395851	0.4228833185537391	0.5078852150647257	-0.5923755348809632	-0.8379699993256833	0.6650207181014071	-0.1241523148419565	1.468621316399318	-0.8410334391862366	-0.8410334391860246	-0.1068767541007468	-0.08065210307626834	-0.4030285306005413	0.672043151469381	5.451163867616367e-07	6.687632260168155e-07	-3.116830804140564e-06	-3.363279683227066e-07	6.416214476076947e-07	5.600569835800443e-07	4.99601747206484e-07
